<!--?xml version="1.0" standalone="no"?-->
              <svg id="sw-js-blob-svg" viewBox="0 0 100 100" xmlns="http://www.w3.org/2000/svg" version="1.1">
                    <defs> 
                        <linearGradient id="sw-gradient" x1="0" x2="1" y1="1" y2="0">
                            <stop id="stop1" stop-color="rgba(255, 255, 255, 1)" offset="0%"></stop>
                            <stop id="stop2" stop-color="rgba(35.919, 23.568, 85.01, 1)" offset="100%"></stop>
                        </linearGradient>
                    </defs>
                <path fill="none" d="M12.7,-23.2C17.2,-17,22.1,-14.6,26.8,-10.4C31.6,-6.2,36.3,-0.2,37.7,7C39.1,14.1,37.2,22.3,32.1,27.4C27,32.4,18.8,34.2,11,35.6C3.2,37,-4.1,37.9,-9.8,35.3C-15.5,32.8,-19.6,26.6,-24.9,21.2C-30.3,15.7,-37,11,-40.5,4.2C-43.9,-2.5,-44,-11.4,-40.5,-18.2C-36.9,-25.1,-29.7,-30.1,-22.4,-35C-15,-40,-7.5,-44.9,-1.7,-42.3C4.1,-39.7,8.3,-29.5,12.7,-23.2Z" width="100%" height="100%" transform="translate(50 50)" stroke-width="1" style="transition: all 0.3s ease 0s;" stroke="url(#sw-gradient)"></path>
              </svg>